<svg xmlns="http://www.w3.org/2000/svg" xmlns:svg="http://www.w3.org/2000/svg" id="svg8" version="1.1" viewBox="0 0 16 16"><metadata id="metadata12"/><defs id="defs3051"><style id="current-color-scheme" type="text/css"/></defs><path id="path962" d="M 7,1 C 5.343145741,0.999999974 3.999999975,2.34314574 4,4 V 5.001953125 5.099609375 6 H 2 V 14 H 4 4.5625 7.90234375 L 8.07421875,13 H 4.146484375 4 3 V 7 H 4 V 7.001953125 H 5 V 7 H 9 10 10.35546875 L 10.580078125,6.54296875 C 10.71560244,6.26990971 10.965269473,6.071034537 11.26171875,6 H 11 10 V 4 C 10.000000025,2.34314574 8.656854259,0.999999974 7,1 Z M 7,2 C 8.104569524,1.999999943 9.000000059,2.895430474 9,4 V 6 H 5 V 5.099609375 5.001953125 4 C 5,2.895430478 5.895430476,1.999999943 7,2 Z" style="opacity:1;fill:#31363b;fill-opacity:1;fill-rule:nonzero;stroke:none;stroke-width:.1000000015;stroke-linecap:round;stroke-linejoin:round;stroke-miterlimit:4;stroke-dasharray:none;stroke-dashoffset:0;stroke-opacity:1"/><path id="path989" d="M 11.5,7 10.0703125,9.8984375 6.87109375,10.36328125 9.185546875,12.619140625 8.640625,15.802734375 11.5,14.298828125 14.359375,15.802734375 13.814453125,12.619140625 16.12890625,10.36328125 12.9296875,9.8984375 Z M 11.501953125,8.80859375 12.2109375,10.248046875 A 0.801898364905,0.801898364905 0 0 0 12.80859375,10.68359375 L 14.41015625,10.912109375 13.251953125,12.04296875 A 0.801898364905,0.801898364905 0 0 0 13.0234375,12.751953125 L 13.296875,14.337890625 11.87109375,13.591796875 A 0.801898364905,0.801898364905 0 0 0 11.1328125,13.591796875 L 9.701171875,14.345703125 9.974609375,12.751953125 A 0.801898364905,0.801898364905 0 0 0 9.74609375,12.04296875 L 8.59375,10.912109375 10.189453125,10.68359375 A 0.801898364905,0.801898364905 0 0 0 10.787109375,10.248046875 Z" style="opacity:1;fill:#0079d3;fill-opacity:1;fill-rule:nonzero;stroke:none;stroke-width:.1216553301;stroke-linecap:round;stroke-linejoin:round;stroke-miterlimit:4;stroke-dasharray:none;stroke-dashoffset:0;stroke-opacity:1"/></svg>