<svg xmlns="http://www.w3.org/2000/svg" xmlns:svg="http://www.w3.org/2000/svg" id="svg8" version="1.1" viewBox="0 0 16 16"><metadata id="metadata12"/><defs id="defs3051"><style id="current-color-scheme" type="text/css"/></defs><path id="path924" d="M 7,0.99999999995 C 5.343145741,0.99999997395 3.999999975,2.34314573995 4,3.99999999995 V 4.99999999995 6 H 2 V 14 H 4.5625 C 4.380395802,13.689973669 4.239776675,13.355493318 4.146484375,13 H 3 V 7 H 4 5 9 10 11 V 7.001953125 H 11.99609375 12 V 6 H 10 V 3.99999999995 C 10.000000025,2.34314573995 8.656854259,0.99999997395 7,0.99999999995 Z M 7,1.99999999995 C 8.104569524,1.99999994295 9.000000059,2.89543047395 9,3.99999999995 V 6 H 5 V 4.99999999995 3.99999999995 C 4.999999941,2.89543047795 5.895430476,1.99999994295 7,1.99999999995 Z" style="opacity:1;fill:#31363b;fill-opacity:1;fill-rule:nonzero;stroke:none;stroke-width:.1000000015;stroke-linecap:round;stroke-linejoin:round;stroke-miterlimit:4;stroke-dasharray:none;stroke-dashoffset:0;stroke-opacity:1"/><path style="opacity:1;fill:#0079d3;fill-opacity:1;fill-rule:nonzero;stroke:none;stroke-width:.1000000015;stroke-linecap:round;stroke-linejoin:round;stroke-miterlimit:4;stroke-dasharray:none;stroke-dashoffset:0;stroke-opacity:1" id="path946" d="M 7.9999999998,7.99984617199 C 6.3380063898,7.99984617199 4.9999999998,9.3378525594 4.9999999998,10.999846172 V 11.9998461707 C 4.9999999998,13.6618397796 6.3380063898,14.9998461707 7.9999999998,14.9998461707 H 12 C 13.66199361,14.9998461707 15.0000000001,13.6618397796 15.0000000001,11.9998461707 V 10.999846172 C 15.0000000001,9.3378525594 13.66199361,7.99984617199 12,7.99984617199 Z M 8.00390625,9.00375242207 H 11.9960937498 C 13.1190733017,9.00375242207 13.9980468749,9.8807728681 13.9980468749,11.0037524196 V 11.9998461707 C 13.9980468749,13.1228257222 13.1220372749,13.9939867969 11.9960937498,13.9939867969 H 8.00390625 C 6.8779627249,13.9939867969 6.0039062498,13.1228257222 6.0039062498,11.9998461707 V 11.0037524196 C 6.0039062498,9.8807728681 6.8809266977,9.00375242207 8.00390625,9.00375242207 Z"/><path style="opacity:1;fill:#0079d3;fill-opacity:1;fill-rule:nonzero;stroke:none;stroke-width:.1000000015;stroke-linecap:round;stroke-linejoin:round;stroke-miterlimit:4;stroke-dasharray:none;stroke-dashoffset:0;stroke-opacity:1" id="path948" d="M 7.9999999998,9.9998461695 C 7.4176412587,10.0018004347 6.9999999999,10.4206227301 6.9999999999,11.0037524196 V 11.9998461707 C 6.9999999999,12.5829797191 7.4117789998,12.9940254022 7.9999999998,12.9959399219 L 12,13 V 10 Z"/></svg>