<svg xmlns="http://www.w3.org/2000/svg" xmlns:svg="http://www.w3.org/2000/svg" id="svg8" width="22" height="22" version="1.1" viewBox="0 0 22 22"><metadata id="metadata12"/><defs id="defs3051"><style id="current-color-scheme" type="text/css"/><style id="current-color-scheme-5" type="text/css"/></defs><path id="path962" d="M 9.41796875,2.5 C 8.83148079508,2.51399186484 8.25791811116,2.67518044112 7.75,2.96875 6.66704638936,3.59399355686 5.99994244736,4.74951288496 6,6 V 9 H 4 V 18 H 7 7.5625 12.97265625 L 13.14453125,17 H 7.146484375 7 5 V 10 H 7 V 10.001953125 H 8 V 10 H 12 13 14 V 13.0625 L 14.43359375,13.001953125 15,11.859375 V 9 H 14.26171875 14 13.296875 13 V 6 C 13.0000575526,4.74951288496 12.3329536106,3.59399355686 11.25,2.96875 10.6939014923,2.64736043765 10.060088277,2.48519074504 9.41796875,2.5 Z M 9.44140625,3.5 C 9.4804633841,3.49908434689 9.5195366159,3.49908434689 9.55859375,3.5 9.9774406535,3.50973908095 10.3871235494,3.62458461406 10.75,3.833984375 11.5237973548,4.2807363997 12.0003402503,5.10649588582 12,6 V 9 H 8 7 V 6 C 6.99965974972,5.10649588582 7.47620264523,4.2807363997 8.25,3.833984375 8.6128764506,3.62458461406 9.0225593465,3.50973908095 9.44140625,3.5 Z" style="opacity:1;fill:#31363b;fill-opacity:1;fill-rule:nonzero;stroke:none;stroke-width:.1000000015;stroke-linecap:round;stroke-linejoin:round;stroke-miterlimit:4;stroke-dasharray:none;stroke-dashoffset:0;stroke-opacity:1"/><path id="path989" d="M 16.5,11 15.0703125,13.8984375 11.87109375,14.36328125 14.185546875,16.619140625 13.640625,19.802734375 16.5,18.298828125 19.359375,19.802734375 18.814453125,16.619140625 21.12890625,14.36328125 17.9296875,13.8984375 Z M 16.501953125,12.80859375 17.2109375,14.248046875 A 0.801898364905,0.801898364905 0 0 0 17.80859375,14.68359375 L 19.41015625,14.912109375 18.251953125,16.04296875 A 0.801898364905,0.801898364905 0 0 0 18.0234375,16.751953125 L 18.296875,18.337890625 16.87109375,17.591796875 A 0.801898364905,0.801898364905 0 0 0 16.1328125,17.591796875 L 14.701171875,18.345703125 14.974609375,16.751953125 A 0.801898364905,0.801898364905 0 0 0 14.74609375,16.04296875 L 13.59375,14.912109375 15.189453125,14.68359375 A 0.801898364905,0.801898364905 0 0 0 15.787109375,14.248046875 Z" style="opacity:1;fill:#0079d3;fill-opacity:1;fill-rule:nonzero;stroke:none;stroke-width:.1216553301;stroke-linecap:round;stroke-linejoin:round;stroke-miterlimit:4;stroke-dasharray:none;stroke-dashoffset:0;stroke-opacity:1"/></svg>