<svg xmlns="http://www.w3.org/2000/svg" xmlns:svg="http://www.w3.org/2000/svg" id="svg8" width="8" height="8" version="1.1" viewBox="0 0 8 8"><metadata id="metadata12"/><defs id="defs3051"><style id="current-color-scheme" type="text/css"/></defs><path id="rect3847" d="M 2.953125 0 C 2.61801338372 0.007910320033 2.29026485828 0.099921688856 2 0.267578125 C 1.38108302315 0.62490999179 0.999867412878 1.28533625411 1 2 L 1 3 L 0 3 L 0 7 L 2.744140625 7 A 3.14081573486 3.14081549644 0 0 1 2.400390625 6 L 1 6 L 1 4 L 2.7421875 4 A 3.14081573486 3.14081549644 0 0 1 3.6015625 3 L 2 3 L 2 2 L 1.99609375 2 C 1.99600187262 1.64138422839 2.18738277687 1.31000484165 2.498046875 1.130859375 C 2.6574765817 1.03853805244 2.83925399453 0.99191113242 3.0234375 0.99609375 C 3.19172448421 1.00014857896 3.35628422026 1.04649397401 3.501953125 1.130859375 C 3.81261722313 1.31000484165 4.00399812738 1.64138422839 4.00390625 2 L 4 2 L 4 2.744140625 A 3.14081573486 3.14081549644 0 0 1 5 2.400390625 L 5 2 C 5.00013258712 1.28533625411 4.61891697685 0.62490999179 4 0.267578125 C 3.68220131302 0.08402434842 3.32002408961 -0.008547068756 2.953125 0 z" style="opacity:1;fill:#31363b;fill-opacity:.5719696879;fill-rule:nonzero;stroke:none;stroke-width:.0979795903;stroke-linecap:round;stroke-linejoin:round;stroke-miterlimit:4;stroke-dasharray:none;stroke-dashoffset:0;stroke-opacity:1"/><ellipse id="path4795" cx="5.5" cy="5.5" rx="2.5" ry="2.5" style="opacity:1;fill:#9361ff;fill-opacity:1;fill-rule:nonzero;stroke:none;stroke-width:.125;stroke-linecap:round;stroke-linejoin:round;stroke-miterlimit:4;stroke-dasharray:none;stroke-dashoffset:0;stroke-opacity:1"/><rect id="rect4800" width="1" height=".834" x="5" y="7" rx="0" ry="0" style="opacity:1;fill:#fff;fill-opacity:1;fill-rule:nonzero;stroke:none;stroke-width:.1000000015;stroke-linecap:round;stroke-linejoin:round;stroke-miterlimit:4;stroke-dasharray:none;stroke-dashoffset:0;stroke-opacity:1"/><rect style="opacity:1;fill:#fff;fill-opacity:1;fill-rule:nonzero;stroke:none;stroke-width:.1548321694;stroke-linecap:round;stroke-linejoin:round;stroke-miterlimit:4;stroke-dasharray:none;stroke-dashoffset:0;stroke-opacity:1" id="rect4802" width="1" height="2" x="5" y="4" rx="0" ry="0"/></svg>