<svg xmlns="http://www.w3.org/2000/svg" xmlns:svg="http://www.w3.org/2000/svg" id="svg8" version="1.1" viewBox="0 0 16 16"><metadata id="metadata12"/><defs id="defs3051"><style id="current-color-scheme" type="text/css"/></defs><path id="path924" d="M 7,0.99999999995 C 5.343145741,0.99999997395 3.999999975,2.34314573995 4,3.99999999995 V 4.99999999995 6 H 2 V 14 H 4.5625 C 4.380395802,13.689973669 4.239776675,13.355493318 4.146484375,13 H 3 V 7 H 4 5 9 10 11 V 7.001953125 H 11.99609375 12 V 6 H 10 V 3.99999999995 C 10.000000025,2.34314573995 8.656854259,0.99999997395 7,0.99999999995 Z M 7,1.99999999995 C 8.104569524,1.99999994295 9.000000059,2.89543047395 9,3.99999999995 V 6 H 5 V 4.99999999995 3.99999999995 C 4.999999941,2.89543047795 5.895430476,1.99999994295 7,1.99999999995 Z" style="opacity:1;fill:#f2f2f2;fill-opacity:1;fill-rule:nonzero;stroke:none;stroke-width:.1000000015;stroke-linecap:round;stroke-linejoin:round;stroke-miterlimit:4;stroke-dasharray:none;stroke-dashoffset:0;stroke-opacity:1"/><path style="opacity:1;fill:#5098ce;fill-opacity:1;fill-rule:nonzero;stroke:none;stroke-width:.1000000015;stroke-linecap:round;stroke-linejoin:round;stroke-miterlimit:4;stroke-dasharray:none;stroke-dashoffset:0;stroke-opacity:1" id="path932" d="M 7.9999999999,7.9999999621 C 6.33800639,7.9999999621 4.9999999999,9.3380063495 4.9999999999,10.9999999621 V 11.9999999609 C 4.9999999999,13.6619935698 6.33800639,14.9999999609 7.9999999999,14.9999999609 H 12.0000000002 C 13.6619936101,14.9999999609 15.0000000002,13.6619935698 15.0000000002,11.9999999609 V 10.9999999621 C 15.0000000002,9.3380063495 13.6619936101,7.9999999621 12.0000000002,7.9999999621 Z M 8.0039062501,9.0039062122 H 11.99609375 C 13.1190733018,9.0039062122 13.998046875,9.8809266582 13.998046875,11.0039062097 V 11.9999999609 C 13.998046875,13.1229795124 13.122037275,13.9941405871 11.99609375,13.9941405871 H 8.0039062501 C 6.8779627251,13.9941405871 6.00390625,13.1229795124 6.00390625,11.9999999609 V 11.0039062097 C 6.00390625,9.8809266582 6.8809266979,9.0039062122 8.0039062501,9.0039062122 Z"/><path style="opacity:1;fill:#5098ce;fill-opacity:1;fill-rule:nonzero;stroke:none;stroke-width:.1000000015;stroke-linecap:round;stroke-linejoin:round;stroke-miterlimit:4;stroke-dasharray:none;stroke-dashoffset:0;stroke-opacity:1" id="path934" d="M 7.9999999999,9.9999999596 C 7.4176412589,10.0019542248 7.0000000001,10.4207765203 7.0000000001,11.0039062097 V 11.9999999609 C 7.0000000001,12.5831335093 7.411779,12.9941791924 7.9999999999,12.9960937121 L 10.0000000001,13.0001537902 V 10.0001537902 Z"/></svg>