<svg xmlns="http://www.w3.org/2000/svg" xmlns:svg="http://www.w3.org/2000/svg" id="svg8" version="1.1" viewBox="0 0 16 16"><metadata id="metadata12"/><defs id="defs3051"><style id="current-color-scheme" type="text/css"/></defs><path id="rect830" d="M 7.00000018793,0.999788833289 C 5.34314592893,0.999788808289 4.00000016293,2.34293457429 4.00000018793,3.99978883329 V 6.09978883338 H 5.00000018793 V 3.99978883329 C 5.00000018793,2.89521931029 5.89543066493,1.99978877529 7.00000018793,1.99978883329 8.10456971093,1.99978877529 9.00000024593,2.89521931029 9.00000018793,3.99978883329 V 5.99978883338 H 2.00000018793 V 13.9997888334 H 8.76171893793 C 8.55481250393,13.6884362584 8.38750802893,13.3525151164 8.26367206293,12.9997888334 H 3.00000018793 V 6.99978883338 H 9.00000018793 10.0000001879 11.000000188 V 7.26346070838 C 11.323455039,7.14875752338 11.658969362,7.07143195638 12.000000188,7.03299195838 V 5.99978883338 H 10.0000001879 V 3.99978883329 C 10.0000002129,2.34293457429 8.65685444693,0.999788808289 7.00000018793,0.999788833289 Z" style="opacity:1;fill:#f2f2f2;fill-opacity:1;fill-rule:nonzero;stroke:none;stroke-width:.1000000015;stroke-linecap:round;stroke-linejoin:round;stroke-miterlimit:4;stroke-dasharray:none;stroke-dashoffset:0;stroke-opacity:1"/><ellipse id="path849" cx="12.5" cy="11.5" rx="3.5" ry="3.5" style="opacity:1;fill:#9361ff;fill-opacity:1;fill-rule:nonzero;stroke:none;stroke-width:.1341917813;stroke-linecap:round;stroke-linejoin:round;stroke-miterlimit:4;stroke-dasharray:none;stroke-dashoffset:0;stroke-opacity:1"/><rect id="rect851" width="1" height="3" x="12" y="-12" transform="scale(1,-1)" style="opacity:1;fill:#fff;fill-opacity:1;fill-rule:nonzero;stroke:none;stroke-width:.0866030976;stroke-linecap:round;stroke-linejoin:round;stroke-miterlimit:4;stroke-dasharray:none;stroke-dashoffset:0;stroke-opacity:1"/><rect style="opacity:1;fill:#fff;fill-opacity:1;fill-rule:nonzero;stroke:none;stroke-width:.0499993227;stroke-linecap:round;stroke-linejoin:round;stroke-miterlimit:4;stroke-dasharray:none;stroke-dashoffset:0;stroke-opacity:1" id="rect853" width="1" height="1" x="12" y="-14" transform="scale(1,-1)"/></svg>