<svg xmlns="http://www.w3.org/2000/svg" xmlns:svg="http://www.w3.org/2000/svg" id="svg8" version="1.1" viewBox="0 0 16 16"><metadata id="metadata12"/><defs id="defs3051"><style id="current-color-scheme" type="text/css"/></defs><path id="path857" d="M 7,1 A 2.99999995494,2.99999995494 0 0 0 4,4 V 5 6 H 2 V 14 H 4.5625 C 4.380395802,13.689973672 4.239776675,13.355493316 4.146484375,13 H 3 V 7 H 4 5 11 V 7.001953125 H 11.99609375 C 11.997414942,7.001953125 11.998679096,7.001951826 12,7.001953125 V 6 H 10 V 4 A 2.99999995494,2.99999995494 0 0 0 7,1 Z M 7,2 A 1.99999989487,1.99999989487 0 0 1 9,4 V 6 H 5 V 5 4 A 1.99999989487,1.99999989487 0 0 1 7,2 Z" style="opacity:1;fill:#f2f2f2;fill-opacity:1;fill-rule:nonzero;stroke:none;stroke-width:.1000000015;stroke-linecap:round;stroke-linejoin:round;stroke-miterlimit:4;stroke-dasharray:none;stroke-dashoffset:0;stroke-opacity:1"/><path id="rect902" d="M 8,8 C 6.33800639,8 5,9.33800639 5,11 V 12 C 5,13.66199361 6.33800639,15 8,15 H 12 C 13.66199361,15 15,13.66199361 15,12 V 11 C 15,9.33800639 13.66199361,8 12,8 Z M 8.00390625,9.00390625 H 11.99609375 C 13.119073302,9.00390625 13.998046875,9.880926699 13.998046875,11.00390625 V 12 C 13.998046875,13.122979551 13.122037275,13.994140625 11.99609375,13.994140625 H 8.00390625 C 6.877962725,13.994140625 6.00390625,13.122979551 6.00390625,12 V 11.00390625 C 6.00390625,9.880926699 6.880926698,9.00390625 8.00390625,9.00390625 Z" style="opacity:1;fill:#9361ff;fill-opacity:1;fill-rule:nonzero;stroke:none;stroke-width:.1000000015;stroke-linecap:round;stroke-linejoin:round;stroke-miterlimit:4;stroke-dasharray:none;stroke-dashoffset:0;stroke-opacity:1"/><path id="path913" d="M 8,10 C 7.417641259,10.001954262 7,10.420776558 7,11.00390625 V 12 C 7,12.583133548 7.411779,12.99417923 8,12.99609375 Z" style="opacity:1;fill:#9361ff;fill-opacity:1;fill-rule:nonzero;stroke:none;stroke-width:.1000000015;stroke-linecap:round;stroke-linejoin:round;stroke-miterlimit:4;stroke-dasharray:none;stroke-dashoffset:0;stroke-opacity:1"/></svg>