<svg xmlns="http://www.w3.org/2000/svg" xmlns:svg="http://www.w3.org/2000/svg" id="svg8" width="22" height="22" version="1.1" viewBox="0 0 22 22"><metadata id="metadata12"/><defs id="defs3051"><style id="current-color-scheme" type="text/css"/><style id="current-color-scheme-5" type="text/css"/><style id="current-color-scheme-6" type="text/css"/></defs><path id="path962" d="M 9.41796875 2.5 C 8.83148079508 2.51399186484 8.25791811116 2.67518044112 7.75 2.96875 C 6.66704638936 3.59399355686 5.99994244736 4.74951288496 6 6 L 6 9 L 4 9 L 4 18 L 9.669921875 18 A 5.06248950958 5.06253385544 0 0 1 9.466796875 17 L 5 17 L 5 10 L 7 10 L 7 10.001953125 L 8 10.001953125 L 8 10 L 12 10 L 13 10 L 14 10 L 14 11.466796875 A 5.06248950958 5.06253385544 0 0 1 14.5 11.4375 A 5.06248950958 5.06253385544 0 0 1 15 11.462890625 L 15 9 L 14.26171875 9 L 14 9 L 13.296875 9 L 13 9 L 13 6 C 13.0000575526 4.74951288496 12.3329536106 3.59399355686 11.25 2.96875 C 10.6939014923 2.64736043765 10.060088277 2.48519074504 9.41796875 2.5 z M 9.44140625 3.5 C 9.4804633841 3.49908434689 9.5195366159 3.49908434689 9.55859375 3.5 C 9.9774406535 3.50973908095 10.3871235494 3.62458461406 10.75 3.833984375 C 11.5237973548 4.2807363997 12.0003402503 5.10649588582 12 6 L 12 9 L 8 9 L 7 9 L 7 6 C 6.99965974972 5.10649588582 7.47620264523 4.2807363997 8.25 3.833984375 C 8.6128764506 3.62458461406 9.0225593465 3.50973908095 9.44140625 3.5 z" style="opacity:1;fill:#f2f2f2;fill-opacity:1;fill-rule:nonzero;stroke:none;stroke-width:.1000000015;stroke-linecap:round;stroke-linejoin:round;stroke-miterlimit:4;stroke-dasharray:none;stroke-dashoffset:0;stroke-opacity:1"/><ellipse id="path849" cx="14.5" cy="16.5" rx="4.125" ry="4.125" style="opacity:1;fill:#9361ff;fill-opacity:1;fill-rule:nonzero;stroke:none;stroke-width:.1581543684;stroke-linecap:round;stroke-linejoin:round;stroke-miterlimit:4;stroke-dasharray:none;stroke-dashoffset:0;stroke-opacity:1"/><rect id="rect851" width="1" height="3" x="14" y="-17" transform="scale(1,-1)" style="opacity:1;fill:#fff;fill-opacity:1;fill-rule:nonzero;stroke:none;stroke-width:.0866030976;stroke-linecap:round;stroke-linejoin:round;stroke-miterlimit:4;stroke-dasharray:none;stroke-dashoffset:0;stroke-opacity:1"/><rect style="opacity:1;fill:#fff;fill-opacity:1;fill-rule:nonzero;stroke:none;stroke-width:.0499993227;stroke-linecap:round;stroke-linejoin:round;stroke-miterlimit:4;stroke-dasharray:none;stroke-dashoffset:0;stroke-opacity:1" id="rect853" width="1" height="1" x="14" y="-19" transform="scale(1,-1)"/></svg>