<svg xmlns="http://www.w3.org/2000/svg" xmlns:svg="http://www.w3.org/2000/svg" id="svg8" width="8" height="8" version="1.1" viewBox="0 0 8 8"><metadata id="metadata12"/><defs id="defs3051"><style id="current-color-scheme" type="text/css"/></defs><path id="rect3847" d="M 2.953125,0 C 2.61801338372,0.007910320033 2.29026485828,0.099921688856 2,0.267578125 1.38108302315,0.62490999179 0.999867412878,1.28533625411 1,2 V 3 H 0 V 7 H 2.302734375 C 2.27690069369,6.86794925345 2.37937075327,6.66476554491 2.259765625,6.59375 V 6 H 1 V 4 H 2.802734375 C 3.1974780839,3.55098695895 3.7678100711,3.259765625 4.40625,3.259765625 H 6 V 3 H 5 V 2 C 5.00013258712,1.28533625411 4.61891697685,0.62490999179 4,0.267578125 3.68220131302,0.08402434842 3.32002408961,-0.008547068756 2.953125,0 Z M 3.0234375,0.99609375 C 3.19172448421,1.00014857896 3.35628422026,1.04649397401 3.501953125,1.130859375 3.81261722313,1.31000484165 4.00399812738,1.64138422839 4.00390625,2 H 4 V 3 H 2 V 2 H 1.99609375 C 1.99600187262,1.64138422839 2.18738277687,1.31000484165 2.498046875,1.130859375 2.6574765817,1.03853805244 2.83925399453,0.99191113242 3.0234375,0.99609375 Z" style="opacity:1;fill:#f2f2f2;fill-opacity:1;fill-rule:nonzero;stroke:none;stroke-width:.0979795903;stroke-linecap:round;stroke-linejoin:round;stroke-miterlimit:4;stroke-dasharray:none;stroke-dashoffset:0;stroke-opacity:1"/><path id="rect3906" d="M 4.40625,4 C 3.6271875,4 3,4.6271875 3,5.40625 V 6.59375 C 3,7.3728125 3.6271875,8 4.40625,8 H 6.59375 C 7.3728125,8 8,7.3728125 8,6.59375 V 5.40625 C 8,4.6271875 7.3728125,4 6.59375,4 Z M 4.40625,5 H 6.59375 C 6.83610973225,5 7,5.16389026775 7,5.40625 V 6.59375 C 7,6.83610973225 6.83610973225,7 6.59375,7 H 4.40625 C 4.16389026775,7 4,6.83610973225 4,6.59375 V 5.40625 C 4,5.16389026775 4.16389026775,5 4.40625,5 Z" style="opacity:1;fill:#5098ce;fill-opacity:1;fill-rule:nonzero;stroke:none;stroke-width:.1000000015;stroke-linecap:round;stroke-linejoin:round;stroke-miterlimit:4;stroke-dasharray:none;stroke-dashoffset:0;stroke-opacity:1"/><path id="rect3916" d="M 4.21875,5 H 4.78125 C 4.9024375,5 5,5.0975625 5,5.21875 V 6.78125 C 5,6.9024375 4.9024375,7 4.78125,7 H 4.21875 C 4.0975625,7 4,6.9024375 4,6.78125 V 5.21875 C 4,5.0975625 4.0975625,5 4.21875,5 Z" style="opacity:1;fill:#5098ce;fill-opacity:.776515108;fill-rule:nonzero;stroke:none;stroke-width:.1000000015;stroke-linecap:round;stroke-linejoin:round;stroke-miterlimit:4;stroke-dasharray:none;stroke-dashoffset:0;stroke-opacity:1"/></svg>